<svg width="1041" height="1042" viewBox="0 0 1041 1042" fill="none" xmlns="http://www.w3.org/2000/svg">
<path d="M416.14 53.5459L410.398 55.0792L402.888 45.3574L382.799 50.749L381.351 62.8802L375.845 64.3629L381.772 18.8036L388.036 17.1187L416.123 53.5291L416.14 53.5459ZM399.705 41.1957L386.167 23.4707L383.49 45.5427L399.705 41.1957Z" fill="#231F20"/>
<path d="M424.744 52.0641L419.373 53.0245L411.897 11.2225L417.268 10.2621L420.585 28.779L427.321 27.5658L440.236 6.15095L447.038 4.93783L432.743 28.324L456.839 46.3186L449.8 47.5823L428.365 31.7107L421.326 32.9743L424.744 52.0809V52.0641Z" fill="#231F20"/>
<path d="M490.818 38.2472C490.363 38.938 489.673 39.6625 488.781 40.4039C487.871 41.1452 486.794 41.836 485.548 42.4931C484.285 43.1502 482.87 43.7231 481.271 44.2286C479.671 44.734 477.953 45.071 476.101 45.2563C472.717 45.5933 469.618 45.3743 466.806 44.6161C463.994 43.8579 461.536 42.6448 459.465 40.9599C457.394 39.275 455.71 37.1352 454.413 34.5405C453.117 31.9457 452.308 28.9803 451.972 25.6443C451.652 22.5104 451.871 19.5618 452.612 16.8323C453.352 14.1028 454.582 11.6766 456.299 9.55362C458.017 7.43067 460.172 5.69523 462.782 4.33048C465.392 2.98257 468.423 2.12328 471.875 1.7863C473.609 1.61781 475.226 1.58411 476.741 1.70206C478.257 1.82 479.621 2.02218 480.85 2.32546C482.079 2.62874 483.157 2.98257 484.1 3.40379C485.026 3.82501 485.767 4.24623 486.305 4.6843L487.147 13.193C486.44 12.2494 485.581 11.3564 484.571 10.4972C483.544 9.63787 482.399 8.89652 481.119 8.27311C479.839 7.6497 478.459 7.17793 476.96 6.85781C475.461 6.53768 473.929 6.45343 472.363 6.62192C469.837 6.87465 467.581 7.49806 465.645 8.50899C463.691 9.51992 462.092 10.8341 460.829 12.4685C459.566 14.1028 458.657 15.9899 458.101 18.1297C457.545 20.2863 457.394 22.6283 457.646 25.1557C457.882 27.5313 458.438 29.7048 459.33 31.6593C460.223 33.6306 461.401 35.2987 462.9 36.6634C464.398 38.045 466.2 39.0728 468.288 39.7468C470.393 40.4376 472.75 40.6566 475.36 40.4376C477.297 40.2522 479.048 39.831 480.631 39.2076C482.214 38.5842 483.611 37.8091 484.84 36.8993C486.07 35.9895 487.114 34.9617 487.972 33.8497C488.831 32.7376 489.522 31.5751 490.01 30.3788L490.784 38.2304L490.818 38.2472Z" fill="#231F20"/>
<path d="M522.845 23.0661L501.747 23.5041L502.05 38.0616L526.045 37.5729L526.146 42.4254L496.695 43.032L495.819 0.58971L524.613 0L524.714 4.85247L501.376 5.34109L501.646 18.6854L522.744 18.2473L522.845 23.0998V23.0661Z" fill="#231F20"/>
<path d="M564.318 6.75639L545.324 5.57697L544.887 9.68809C544.297 14.7933 543.641 19.174 542.917 22.8133C542.192 26.4527 541.468 29.5192 540.677 31.996C539.902 34.4728 539.094 36.4441 538.252 37.8931C537.41 39.3421 536.552 40.4372 535.642 41.1954C534.75 41.9536 533.824 42.4254 532.881 42.6107C531.938 42.7961 530.995 42.8635 530.069 42.7961C529.547 42.7624 529.109 42.7118 528.738 42.6613C528.385 42.5939 527.981 42.476 527.543 42.2906L527.897 36.4104C528.216 36.5452 528.503 36.6463 528.755 36.7136C529.008 36.7642 529.26 36.7979 529.513 36.8147C530.001 36.8484 530.523 36.781 531.079 36.6463C531.635 36.4946 532.207 36.1239 532.797 35.5005C533.386 34.894 533.975 33.9673 534.581 32.7542C535.188 31.5411 535.777 29.9067 536.333 27.8512C536.905 25.7956 537.461 23.2514 538.016 20.2018C538.572 17.1521 539.077 13.4791 539.549 9.18262L540.509 0.421221L570.026 2.2409L567.417 44.6158L561.978 44.2788L564.285 6.73954L564.318 6.75639Z" fill="#231F20"/>
<path d="M605.404 30.3287L584.524 27.2959L582.436 41.7016L606.196 45.1556L605.488 49.9576L576.341 45.7117L582.453 3.69062L610.944 7.83544L610.237 12.6374L587.134 9.26759L585.215 22.4771L606.095 25.5099L605.387 30.3118L605.404 30.3287Z" fill="#231F20"/>
<path d="M620.492 38.2137L617.292 52.4173L611.971 51.221L621.317 9.80656L634.737 12.8394C640.563 14.1536 644.706 16.226 647.13 19.0229C649.555 21.8366 650.245 25.5602 649.201 30.2105C648.174 34.7934 645.901 37.8936 642.382 39.5279C638.863 41.1623 634.266 41.3308 628.591 40.0503L620.492 38.2137ZM625.56 15.7374L621.553 33.496L629.483 35.282C633.424 36.175 636.589 36.1582 638.98 35.2146C641.372 34.2711 642.954 32.0807 643.729 28.6099C644.436 25.4928 643.931 23.1003 642.247 21.4323C640.563 19.7642 637.583 18.45 633.323 17.4896L625.577 15.7374H625.56Z" fill="#231F20"/>
<path d="M680.437 69.6697L674.762 67.9342L673.567 55.702L653.68 49.6027L646.019 59.1223L640.563 57.4543L669.744 21.9874L675.941 23.8913L680.437 69.6697ZM673.062 50.4788L670.99 28.272L657.014 45.559L673.062 50.4788Z" fill="#231F20"/>
<path d="M721.405 45.4424L707.194 40.0002L693.757 75.1132L688.655 73.1588L702.092 38.0458L687.829 32.5699L689.564 28.0375L723.14 40.9101L721.405 45.4424Z" fill="#231F20"/>
<path d="M716 60.6738C717.364 57.8264 719.064 55.4338 721.135 53.4794C723.19 51.5249 725.497 50.0928 728.073 49.1661C730.649 48.2562 733.394 47.8856 736.324 48.0877C739.254 48.2899 742.285 49.1324 745.417 50.6319C748.481 52.0978 751.024 53.9006 753.061 56.0067C755.099 58.1128 756.564 60.4548 757.49 62.9821C758.399 65.5095 758.753 68.2221 758.5 71.1033C758.264 73.9844 757.406 76.9498 755.957 79.9826C754.594 82.8301 752.876 85.2226 750.822 87.1771C748.767 89.1316 746.461 90.5637 743.884 91.4735C741.308 92.4002 738.546 92.7541 735.6 92.5519C732.653 92.3497 729.622 91.5072 726.524 90.0077C723.425 88.525 720.866 86.7222 718.862 84.6161C716.842 82.5099 715.377 80.1848 714.467 77.6575C713.558 75.1301 713.204 72.4343 713.44 69.57C713.676 66.7057 714.518 63.7403 716 60.6738ZM721.119 63.2012C720.091 65.3578 719.452 67.5145 719.199 69.6711C718.946 71.8446 719.115 73.9002 719.721 75.8715C720.327 77.8428 721.354 79.6793 722.836 81.3642C724.318 83.0491 726.271 84.4981 728.713 85.6607C731.003 86.7559 733.242 87.3793 735.414 87.5309C737.587 87.6825 739.624 87.3793 741.561 86.6379C743.48 85.8966 745.231 84.7677 746.831 83.2176C748.431 81.6675 749.778 79.7467 750.872 77.4553C751.899 75.2986 752.539 73.142 752.792 70.9853C753.044 68.8287 752.876 66.7563 752.27 64.785C751.664 62.8136 750.636 60.9771 749.155 59.2922C747.673 57.6073 745.72 56.1583 743.278 54.9958C740.988 53.9006 738.748 53.2772 736.56 53.1593C734.387 53.0245 732.316 53.3277 730.38 54.0691C728.443 54.7936 726.692 55.9225 725.126 57.4726C723.56 59.0058 722.23 60.9266 721.119 63.218V63.2012Z" fill="#231F20"/>
<path d="M763.922 92.434L756.496 104.953L751.799 102.156L773.47 65.6612L785.307 72.6871C790.443 75.7368 793.743 78.9886 795.191 82.4089C796.639 85.8292 796.134 89.5865 793.71 93.6977C791.318 97.7245 788.187 99.9823 784.347 100.437C780.491 100.892 776.08 99.6453 771.079 96.6631L763.939 92.4171L763.922 92.434ZM775.692 72.6197L766.397 88.2555L773.385 92.4003C776.854 94.4727 779.868 95.4162 782.428 95.2814C784.987 95.1298 787.176 93.5292 788.995 90.4627C790.628 87.7163 790.898 85.2901 789.803 83.184C788.708 81.0779 786.284 78.9044 782.529 76.6635L775.709 72.6029L775.692 72.6197Z" fill="#231F20"/>
<path d="M821.982 104.075L810.767 103.334L813.966 98.9195L826.932 99.6272L829.879 101.767L804.739 136.509L800.664 133.561L821.982 104.109V104.075Z" fill="#231F20"/>
<path d="M869.062 193.223L864.802 189.078L869.332 177.654L854.446 163.131L843.282 168.068L839.208 164.091L881.388 145.945L886.035 150.477L869.062 193.24V193.223ZM871.302 172.768L879.62 152.078L859.279 161.025L871.302 172.768Z" fill="#231F20"/>
<path d="M874.737 199.862L871.167 195.734L903.244 167.95L906.814 172.078L892.602 184.378L897.081 189.568L922.087 189.736L926.616 194.959L899.22 194.622L896.088 224.546L891.407 219.137L894.084 192.583L889.403 187.175L874.737 199.879V199.862Z" fill="#231F20"/>
<path d="M920.403 249.633C919.577 249.599 918.601 249.38 917.506 248.976C916.412 248.572 915.267 248.016 914.055 247.257C912.859 246.516 911.63 245.589 910.384 244.477C909.138 243.365 907.959 242.051 906.864 240.568C904.844 237.839 903.446 235.059 902.655 232.262C901.863 229.465 901.661 226.719 902.049 224.073C902.436 221.428 903.413 218.884 904.979 216.441C906.544 213.998 908.683 211.791 911.377 209.786C913.92 207.915 916.547 206.601 919.274 205.843C922.002 205.085 924.713 204.899 927.424 205.287C930.118 205.674 932.728 206.652 935.22 208.202C937.713 209.752 940.003 211.925 942.057 214.722C943.084 216.121 943.943 217.502 944.616 218.867C945.29 220.232 945.812 221.512 946.182 222.726C946.553 223.939 946.789 225.051 946.923 226.062C947.041 227.073 947.058 227.932 946.957 228.606L940.087 233.677C940.541 232.582 940.878 231.386 941.08 230.072C941.282 228.757 941.333 227.393 941.215 225.977C941.097 224.562 940.794 223.13 940.306 221.681C939.817 220.232 939.11 218.867 938.167 217.603C936.652 215.548 934.968 213.947 933.099 212.785C931.23 211.622 929.276 210.914 927.239 210.662C925.202 210.409 923.114 210.594 920.975 211.218C918.837 211.841 916.749 212.903 914.711 214.419C912.792 215.834 911.209 217.435 909.98 219.187C908.75 220.956 907.925 222.827 907.504 224.815C907.083 226.803 907.117 228.875 907.605 231.032C908.094 233.189 909.087 235.328 910.619 237.468C911.764 239.035 913.027 240.333 914.358 241.377C915.705 242.422 917.085 243.231 918.5 243.82C919.914 244.41 921.329 244.798 922.726 244.949C924.124 245.118 925.471 245.118 926.734 244.932L920.386 249.616L920.403 249.633Z" fill="#231F20"/>
<path d="M949.786 269.414L938.639 251.486L926.296 259.186L938.975 279.573L934.85 282.135L919.274 257.114L955.292 234.671L970.514 259.136L966.388 261.697L954.063 241.866L942.747 248.909L953.894 266.836L949.769 269.397L949.786 269.414Z" fill="#231F20"/>
<path d="M984.945 296.777L976.273 279.827L972.518 281.545C967.82 283.635 963.728 285.303 960.226 286.549C956.723 287.796 953.709 288.706 951.183 289.313C948.641 289.902 946.553 290.206 944.869 290.222C943.202 290.222 941.804 290.054 940.71 289.666C939.598 289.279 938.74 288.723 938.1 288.015C937.46 287.291 936.921 286.533 936.5 285.69C936.264 285.218 936.079 284.814 935.944 284.477C935.81 284.14 935.726 283.736 935.658 283.264L940.895 280.585C940.929 280.922 940.996 281.225 941.08 281.478C941.164 281.731 941.265 281.967 941.366 282.186C941.585 282.624 941.905 283.028 942.309 283.432C942.714 283.837 943.336 284.14 944.162 284.325C944.987 284.511 946.081 284.561 947.428 284.46C948.775 284.359 950.493 284.022 952.547 283.483C954.602 282.927 957.077 282.118 959.973 281.04C962.869 279.962 966.287 278.529 970.228 276.743L978.243 273.121L991.73 299.473L953.962 318.832L951.47 313.979L984.928 296.844L984.945 296.777Z" fill="#231F20"/>
<path d="M985.618 344.222L977.603 324.694L964.149 330.22L973.259 352.444L968.763 354.28L957.582 327.002L996.833 310.878L1007.76 337.533L1003.28 339.369L994.425 317.769L982.082 322.84L990.097 342.368L985.618 344.205V344.222Z" fill="#231F20"/>
<path d="M986.494 361.207L972.652 365.672L970.985 360.482L1011.36 347.458L1015.59 360.567C1017.43 366.262 1017.75 370.878 1016.57 374.4C1015.39 377.921 1012.53 380.415 1008 381.88C1003.53 383.313 999.712 382.942 996.512 380.735C993.313 378.527 990.838 374.669 989.053 369.126L986.51 361.224L986.494 361.207ZM1008.42 354.13L991.107 359.707L993.599 367.441C994.845 371.283 996.462 374.012 998.483 375.579C1000.5 377.163 1003.2 377.399 1006.58 376.303C1009.61 375.326 1011.43 373.675 1012 371.367C1012.58 369.058 1012.19 365.823 1010.86 361.662L1008.42 354.097V354.13Z" fill="#231F20"/>
<path d="M989.929 428.821L988.531 423.042L998.449 415.78L993.583 395.562L981.493 393.792L980.163 388.249L1025.53 395.343L1027.04 401.661L989.929 428.821ZM1002.69 412.714L1020.74 399.622L998.769 396.37L1002.71 412.714H1002.69Z" fill="#231F20"/>
<path d="M1031.62 451.82L1029.08 436.808L992.017 443.092L991.108 437.717L1028.15 431.433L1025.59 416.37L1030.38 415.561L1036.39 451.028L1031.6 451.837L1031.62 451.82Z" fill="#231F20"/>
<path d="M1015.78 454.936C1018.91 454.667 1021.85 454.919 1024.57 455.694C1027.29 456.469 1029.7 457.733 1031.81 459.468C1033.91 461.221 1035.61 463.394 1036.94 466.023C1038.27 468.651 1039.08 471.684 1039.38 475.155C1039.69 478.541 1039.43 481.642 1038.64 484.472C1037.85 487.303 1036.61 489.746 1034.9 491.835C1033.2 493.908 1031.05 495.576 1028.44 496.839C1025.83 498.103 1022.85 498.878 1019.51 499.164C1016.37 499.434 1013.44 499.181 1010.71 498.406C1007.98 497.631 1005.57 496.367 1003.47 494.632C1001.36 492.88 999.662 490.689 998.331 488.044C997.001 485.399 996.193 482.366 995.89 478.946C995.587 475.525 995.839 472.408 996.631 469.595C997.422 466.781 998.668 464.338 1000.37 462.265C1002.07 460.193 1004.22 458.525 1006.8 457.261C1009.39 455.998 1012.37 455.223 1015.76 454.919L1015.78 454.936ZM1016.21 460.614C1013.84 460.816 1011.65 461.372 1009.66 462.249C1007.68 463.125 1005.98 464.338 1004.6 465.854C1003.21 467.371 1002.15 469.207 1001.45 471.33C1000.74 473.453 1000.5 475.879 1000.74 478.575C1000.96 481.119 1001.56 483.36 1002.54 485.298C1003.52 487.235 1004.81 488.853 1006.43 490.133C1008.05 491.414 1009.92 492.341 1012.05 492.93C1014.19 493.52 1016.53 493.689 1019.08 493.47C1021.45 493.267 1023.64 492.711 1025.63 491.835C1027.61 490.942 1029.31 489.746 1030.69 488.229C1032.08 486.713 1033.14 484.877 1033.84 482.754C1034.55 480.631 1034.79 478.204 1034.55 475.509C1034.33 472.964 1033.71 470.74 1032.72 468.786C1031.72 466.848 1030.41 465.231 1028.79 463.917C1027.18 462.619 1025.31 461.676 1023.18 461.12C1021.06 460.564 1018.74 460.378 1016.2 460.597L1016.21 460.614Z" fill="#231F20"/>
<path d="M1013.03 512.424L998.483 512.188L998.567 506.729L1041 507.42L1040.78 521.186C1040.68 527.167 1039.52 531.632 1037.26 534.597C1035.01 537.546 1031.5 538.995 1026.74 538.911C1022.06 538.843 1018.55 537.242 1016.23 534.125C1013.92 531.008 1012.81 526.544 1012.9 520.731L1013.03 512.424ZM1036.05 512.812L1017.86 512.525L1017.73 520.646C1017.66 524.69 1018.34 527.79 1019.73 529.93C1021.13 532.07 1023.61 533.182 1027.16 533.232C1030.36 533.283 1032.6 532.306 1033.88 530.301C1035.16 528.296 1035.85 525.111 1035.91 520.747L1036.05 512.795V512.812Z" fill="#231F20"/>
<path d="M1032.53 568.262L1027.43 558.237L1032.87 558.725L1038.9 570.233L1038.58 573.856L995.89 569.997L996.344 564.976L1032.55 568.245L1032.53 568.262Z" fill="#231F20"/>
<path d="M980.011 654.275L981.409 648.495L993.532 646.575L998.432 626.356L988.481 619.263L989.828 613.719L1026.94 640.745L1025.41 647.047L979.994 654.275H980.011ZM998.735 645.766L1020.76 642.362L1002.68 629.439L998.719 645.766H998.735Z" fill="#231F20"/>
<path d="M977.216 662.515L978.95 657.342L1019.19 670.804L1017.46 675.977L999.645 670.013L997.472 676.516L1010.07 698.133L1007.88 704.688L994.206 680.931L966.877 693.466L969.15 686.676L993.347 675.455L995.62 668.665L977.216 662.515Z" fill="#231F20"/>
<path d="M957.649 727.164C957.262 726.422 956.959 725.479 956.74 724.333C956.521 723.187 956.437 721.907 956.453 720.492C956.487 719.076 956.656 717.543 956.975 715.909C957.295 714.274 957.817 712.589 958.541 710.871C959.872 707.737 961.539 705.125 963.559 703.019C965.58 700.913 967.819 699.346 970.295 698.335C972.77 697.324 975.447 696.869 978.344 696.971C981.24 697.088 984.237 697.796 987.318 699.093C990.215 700.323 992.69 701.924 994.727 703.895C996.765 705.867 998.314 708.108 999.341 710.635C1000.37 713.162 1000.86 715.892 1000.81 718.84C1000.76 721.789 1000.03 724.855 998.684 728.057C998.011 729.657 997.253 731.089 996.428 732.37C995.603 733.65 994.761 734.746 993.902 735.672C993.044 736.599 992.218 737.374 991.393 737.997C990.568 738.621 989.861 739.059 989.221 739.312L981.358 735.976C982.519 735.807 983.732 735.487 984.961 734.998C986.19 734.51 987.403 733.853 988.565 733.027C989.726 732.201 990.804 731.207 991.797 730.045C992.791 728.882 993.599 727.585 994.222 726.136C995.216 723.794 995.738 721.519 995.788 719.329C995.839 717.139 995.451 715.1 994.626 713.213C993.801 711.326 992.589 709.624 990.972 708.108C989.356 706.591 987.369 705.328 985.028 704.333C982.839 703.407 980.667 702.851 978.512 702.682C976.357 702.514 974.336 702.766 972.399 703.424C970.463 704.081 968.712 705.159 967.095 706.675C965.479 708.192 964.149 710.146 963.088 712.556C962.33 714.342 961.842 716.077 961.64 717.762C961.421 719.447 961.421 721.047 961.64 722.581C961.859 724.097 962.246 725.512 962.818 726.793C963.391 728.09 964.081 729.236 964.873 730.23L957.615 727.147L957.649 727.164Z" fill="#231F20"/>
<path d="M955.527 762.579L965.294 743.86L952.395 737.121L941.299 758.418L937.005 756.177L950.627 730.044L988.245 749.69L974.925 775.233L970.631 772.992L981.425 752.284L969.604 746.118L959.838 764.837L955.544 762.596L955.527 762.579Z" fill="#231F20"/>
<path d="M949.853 806.773L960.04 790.683L956.656 788.324C952.463 785.342 948.961 782.646 946.098 780.27C943.236 777.894 940.929 775.755 939.127 773.884C937.325 771.997 935.995 770.346 935.136 768.914C934.278 767.482 933.722 766.184 933.503 765.039C933.267 763.893 933.301 762.848 933.604 761.939C933.89 761.029 934.294 760.169 934.783 759.394C935.069 758.956 935.321 758.586 935.54 758.299C935.759 758.013 936.079 757.726 936.45 757.44L941.417 760.591C941.148 760.793 940.912 761.012 940.744 761.197C940.575 761.399 940.424 761.602 940.289 761.804C940.036 762.208 939.834 762.697 939.7 763.253C939.565 763.809 939.615 764.5 939.868 765.308C940.12 766.117 940.643 767.077 941.417 768.189C942.192 769.301 943.337 770.599 944.869 772.098C946.384 773.581 948.355 775.316 950.746 777.254C953.137 779.192 956.117 781.416 959.67 783.909L966.877 788.964L951.049 813.968L915.2 791.255L918.113 786.639L949.87 806.756L949.853 806.773Z" fill="#231F20"/>
<path d="M909.39 831.441L922.12 814.609L910.518 805.83L896.037 824.988L892.164 822.056L909.929 798.552L943.774 824.162L926.397 847.144L922.524 844.212L936.601 825.594L925.959 817.54L913.229 834.372L909.356 831.441H909.39Z" fill="#231F20"/>
<path d="M895.229 840.876L884.334 831.238L887.955 827.144L919.746 855.281L910.619 865.593C906.662 870.075 902.857 872.703 899.236 873.495C895.599 874.27 891.996 873.091 888.426 869.923C884.924 866.806 883.29 863.318 883.56 859.46C883.829 855.585 885.883 851.474 889.74 847.11L895.246 840.892L895.229 840.876ZM912.471 856.141L898.849 844.077L893.461 850.159C890.783 853.192 889.285 855.972 888.948 858.516C888.611 861.06 889.79 863.504 892.451 865.862C894.842 867.985 897.182 868.693 899.455 868.019C901.728 867.328 904.322 865.357 907.218 862.088L912.471 856.141Z" fill="#231F20"/>
<path d="M838.82 878.348L843.08 874.203L854.379 879.022L869.281 864.515L864.634 853.209L868.708 849.233L885.766 891.878L881.119 896.41L838.837 878.348H838.82ZM859.195 881.094L879.654 889.94L871.218 869.367L859.195 881.094Z" fill="#231F20"/>
<path d="M840.419 925.93L852.004 916.073L827.656 887.43L831.815 883.892L856.163 912.535L867.799 902.628L870.947 906.318L843.568 929.62L840.419 925.93Z" fill="#231F20"/>
<path d="M829.609 913.916C831.445 916.477 832.741 919.123 833.465 921.869C834.189 924.615 834.341 927.328 833.92 930.024C833.499 932.72 832.489 935.314 830.923 937.791C829.34 940.268 827.151 942.526 824.322 944.564C821.56 946.552 818.765 947.917 815.936 948.692C813.107 949.467 810.363 949.636 807.702 949.248C805.042 948.844 802.516 947.85 800.091 946.249C797.666 944.649 795.477 942.492 793.524 939.762C791.689 937.201 790.392 934.556 789.668 931.81C788.944 929.063 788.793 926.351 789.214 923.655C789.635 920.959 790.645 918.364 792.244 915.871C793.844 913.377 796.033 911.119 798.811 909.114C801.607 907.109 804.402 905.728 807.214 904.97C810.026 904.211 812.771 904.043 815.431 904.447C818.092 904.852 820.617 905.846 823.025 907.43C825.433 909.013 827.622 911.187 829.609 913.933V913.916ZM824.945 917.202C823.547 915.264 821.964 913.664 820.18 912.4C818.411 911.136 816.509 910.294 814.488 909.889C812.468 909.468 810.363 909.502 808.174 909.99C805.985 910.479 803.796 911.507 801.59 913.091C799.519 914.573 797.902 916.241 796.74 918.078C795.578 919.914 794.854 921.852 794.585 923.891C794.316 925.929 794.467 928.019 795.057 930.159C795.646 932.298 796.69 934.404 798.172 936.477C799.569 938.414 801.152 940.015 802.937 941.279C804.722 942.542 806.608 943.385 808.628 943.789C810.649 944.21 812.754 944.177 814.943 943.688C817.132 943.2 819.338 942.172 821.527 940.588C823.598 939.105 825.197 937.42 826.359 935.567C827.521 933.714 828.245 931.759 828.531 929.704C828.818 927.648 828.666 925.559 828.077 923.453C827.487 921.347 826.443 919.257 824.945 917.185V917.202Z" fill="#231F20"/>
<path d="M778.841 940.773L771.416 928.254L776.114 925.474L797.768 961.986L785.93 969.012C780.795 972.061 776.366 973.409 772.662 973.039C768.974 972.668 765.909 970.427 763.468 966.333C761.077 962.306 760.605 958.481 762.036 954.875C763.468 951.27 766.701 947.984 771.702 945.019L778.841 940.773ZM790.595 960.604L781.317 944.952L774.329 949.096C770.86 951.152 768.57 953.342 767.475 955.667C766.381 957.993 766.751 960.672 768.553 963.738C770.186 966.484 772.19 967.883 774.564 967.933C776.939 967.984 780.003 966.889 783.758 964.665L790.595 960.604Z" fill="#231F20"/>
<path d="M740.786 986.197L746.814 976.711L749.155 981.631L742.318 992.684L739.035 994.251L720.614 955.532L725.16 953.359L740.786 986.197Z" fill="#231F20"/>
<path d="M640.041 984.749L645.733 983.013L653.562 992.482L673.449 986.417L674.493 974.235L679.948 972.567L675.57 1018.29L669.374 1020.18L640.058 984.732L640.041 984.749ZM656.88 996.543L671.007 1013.8L672.944 991.64L656.88 996.543Z" fill="#231F20"/>
<path d="M631.521 986.517L636.859 985.372L645.749 1026.89L640.412 1028.03L636.471 1009.65L629.77 1011.08L617.579 1032.92L610.826 1034.37L624.314 1010.51L599.629 993.341L606.617 991.841L628.574 1006.99L635.562 1005.49L631.487 986.517H631.521Z" fill="#231F20"/>
<path d="M565.935 1002.57C566.373 1001.87 567.03 1001.12 567.905 1000.35C568.781 999.575 569.842 998.85 571.071 998.159C572.3 997.469 573.715 996.845 575.281 996.272C576.863 995.716 578.564 995.312 580.416 995.076C583.784 994.621 586.882 994.722 589.728 995.396C592.574 996.07 595.049 997.199 597.188 998.8C599.326 1000.42 601.077 1002.49 602.458 1005.05C603.839 1007.59 604.748 1010.54 605.186 1013.86C605.607 1017 605.489 1019.93 604.832 1022.69C604.175 1025.45 603.03 1027.91 601.38 1030.1C599.73 1032.3 597.625 1034.1 595.066 1035.53C592.506 1036.98 589.509 1037.92 586.057 1038.39C584.34 1038.63 582.706 1038.71 581.191 1038.65C579.675 1038.58 578.295 1038.43 577.065 1038.16C575.836 1037.89 574.742 1037.57 573.782 1037.18C572.839 1036.79 572.081 1036.41 571.542 1035.99L570.414 1027.51C571.155 1028.44 572.048 1029.3 573.092 1030.12C574.136 1030.95 575.314 1031.64 576.611 1032.23C577.907 1032.82 579.305 1033.24 580.82 1033.51C582.319 1033.78 583.851 1033.81 585.417 1033.59C587.943 1033.26 590.166 1032.55 592.085 1031.49C594.005 1030.41 595.554 1029.04 596.767 1027.38C597.979 1025.71 598.821 1023.79 599.292 1021.61C599.781 1019.44 599.848 1017.1 599.511 1014.57C599.191 1012.21 598.568 1010.05 597.608 1008.12C596.649 1006.18 595.403 1004.56 593.87 1003.23C592.321 1001.9 590.503 1000.94 588.381 1000.32C586.259 999.71 583.902 999.541 581.292 999.861C579.372 1000.11 577.621 1000.59 576.072 1001.26C574.506 1001.93 573.125 1002.76 571.93 1003.7C570.734 1004.66 569.724 1005.71 568.899 1006.87C568.074 1008.03 567.434 1009.2 566.979 1010.39L565.935 1002.57Z" fill="#231F20"/>
<path d="M534.447 1018.8L555.512 1017.67L554.721 1003.13L530.743 1004.43L530.473 999.576L559.89 997.992L562.18 1040.38L533.42 1041.93L533.151 1037.08L556.455 1035.82L555.731 1022.49L534.666 1023.62L534.397 1018.77L534.447 1018.8Z" fill="#231F20"/>
<path d="M493.563 1036.47L512.591 1037.01L512.894 1032.9C513.315 1027.78 513.837 1023.38 514.409 1019.71C514.999 1016.04 515.638 1012.95 516.346 1010.44C517.036 1007.93 517.794 1005.94 518.568 1004.46C519.36 1002.98 520.185 1001.85 521.06 1001.07C521.936 1000.28 522.828 999.794 523.771 999.575C524.714 999.356 525.641 999.254 526.567 999.288C527.089 999.288 527.543 999.339 527.897 999.389C528.25 999.44 528.655 999.558 529.092 999.726L528.924 1005.61C528.604 1005.47 528.318 1005.39 528.048 1005.34C527.796 1005.29 527.543 1005.27 527.291 1005.25C526.802 1005.25 526.28 1005.32 525.742 1005.49C525.186 1005.66 524.63 1006.06 524.075 1006.68C523.519 1007.31 522.946 1008.25 522.391 1009.48C521.835 1010.73 521.296 1012.38 520.791 1014.45C520.286 1016.52 519.814 1019.09 519.36 1022.15C518.905 1025.22 518.518 1028.91 518.198 1033.22L517.524 1042L487.956 1041.17L489.151 998.732L494.607 998.884L493.546 1036.47H493.563Z" fill="#231F20"/>
<path d="M451.702 1014.32L472.666 1016.64L474.283 1002.17L450.423 999.508L450.962 994.689L480.244 997.941L475.546 1040.15L446.92 1036.96L447.459 1032.14L470.646 1034.72L472.128 1021.46L451.164 1019.14L451.702 1014.32Z" fill="#231F20"/>
<path d="M436.329 1006.94L439.057 992.634L444.412 993.662L436.481 1035.38L422.96 1032.8C417.083 1031.69 412.89 1029.77 410.364 1027.04C407.839 1024.31 407.013 1020.6 407.906 1015.92C408.781 1011.3 410.954 1008.14 414.406 1006.38C417.857 1004.63 422.454 1004.31 428.163 1005.39L436.329 1006.94ZM432.035 1029.58L435.437 1011.71L427.455 1010.19C423.482 1009.43 420.333 1009.57 417.975 1010.58C415.618 1011.59 414.119 1013.85 413.446 1017.33C412.856 1020.47 413.429 1022.84 415.18 1024.46C416.931 1026.08 419.945 1027.29 424.239 1028.1L432.035 1029.58Z" fill="#231F20"/>
<path d="M375.39 977.537L381.132 979.087L382.749 991.268L402.82 996.677L410.162 986.905L415.668 988.387L387.716 1024.81L381.452 1023.13L375.407 977.52L375.39 977.537ZM383.405 996.475L386.234 1018.6L399.621 1000.84L383.405 996.458V996.475Z" fill="#231F20"/>
<path d="M335.23 1003.15L349.611 1008.1L361.852 972.551L367.005 974.337L354.763 1009.89L369.211 1014.87L367.628 1019.46L333.648 1007.75L335.23 1003.17V1003.15Z" fill="#231F20"/>
<path d="M340.08 987.731C338.817 990.612 337.184 993.072 335.197 995.094C333.21 997.116 330.954 998.632 328.411 999.626C325.869 1000.64 323.141 1001.09 320.194 1000.99C317.264 1000.89 314.199 1000.15 311.017 998.75C307.902 997.385 305.309 995.684 303.204 993.628C301.099 991.572 299.55 989.315 298.54 986.821C297.529 984.327 297.108 981.632 297.243 978.734C297.395 975.836 298.136 972.853 299.483 969.787C300.746 966.906 302.379 964.446 304.366 962.424C306.353 960.402 308.626 958.886 311.152 957.892C313.694 956.881 316.439 956.443 319.386 956.544C322.332 956.645 325.397 957.386 328.529 958.768C331.678 960.149 334.288 961.851 336.376 963.907C338.464 965.945 339.996 968.22 341.006 970.714C342.017 973.207 342.438 975.886 342.303 978.767C342.168 981.648 341.411 984.631 340.047 987.748L340.08 987.731ZM334.894 985.389C335.854 983.198 336.426 981.025 336.595 978.852C336.78 976.678 336.527 974.622 335.871 972.668C335.197 970.714 334.103 968.928 332.57 967.276C331.038 965.625 329.034 964.26 326.559 963.182C324.235 962.154 321.979 961.615 319.807 961.548C317.635 961.48 315.597 961.834 313.694 962.643C311.792 963.452 310.074 964.648 308.542 966.249C307.009 967.849 305.73 969.821 304.703 972.146C303.743 974.336 303.17 976.51 303.002 978.683C302.817 980.857 303.069 982.912 303.726 984.867C304.399 986.821 305.494 988.607 307.026 990.258C308.559 991.893 310.562 993.274 313.038 994.352C315.361 995.38 317.635 995.919 319.807 995.97C321.996 996.021 324.033 995.65 325.953 994.858C327.872 994.066 329.573 992.87 331.089 991.286C332.604 989.702 333.867 987.731 334.894 985.406V985.389Z" fill="#231F20"/>
<path d="M291.148 957.638L298.152 944.883L302.935 947.512L282.509 984.731L270.453 978.109C265.216 975.228 261.815 972.094 260.249 968.724C258.683 965.355 259.053 961.581 261.36 957.385C263.617 953.274 266.664 950.915 270.487 950.326C274.309 949.736 278.788 950.831 283.89 953.645L291.164 957.655L291.148 957.638ZM280.051 977.84L288.807 961.884L281.684 957.975C278.148 956.02 275.1 955.178 272.541 955.414C269.998 955.65 267.86 957.335 266.142 960.452C264.61 963.249 264.425 965.692 265.587 967.764C266.749 969.836 269.258 971.926 273.08 974.032L280.034 977.857L280.051 977.84Z" fill="#231F20"/>
<path d="M232.717 947.933L243.949 948.304L240.901 952.836L227.918 952.567L224.904 950.528L248.849 914.96L253.025 917.774L232.717 947.933Z" fill="#231F20"/>
<path d="M182.674 860.438L187.069 864.448L182.926 876.023L198.283 890.042L209.279 884.734L213.488 888.576L171.948 908.121L167.149 903.74L182.674 860.438ZM181.125 880.943L173.497 901.903L193.518 892.266L181.108 880.943H181.125Z" fill="#231F20"/>
<path d="M176.814 854.018L180.518 858.028L149.384 886.873L145.679 882.863L159.47 870.092L154.822 865.071L129.834 865.745L125.136 860.673L152.532 860.084L154.671 830.076L159.537 835.333L157.752 861.954L162.619 867.211L176.847 854.018H176.814Z" fill="#231F20"/>
<path d="M129.481 805.78C130.323 805.78 131.282 805.982 132.394 806.336C133.505 806.69 134.667 807.229 135.896 807.937C137.125 808.645 138.371 809.521 139.668 810.599C140.948 811.677 142.177 812.941 143.322 814.39C145.427 817.052 146.925 819.782 147.801 822.562C148.677 825.342 148.98 828.055 148.693 830.717C148.407 833.379 147.515 835.94 146.033 838.433C144.551 840.927 142.497 843.202 139.853 845.291C137.378 847.245 134.802 848.661 132.091 849.503C129.396 850.346 126.685 850.632 123.974 850.329C121.263 850.025 118.637 849.149 116.077 847.683C113.535 846.218 111.177 844.128 109.022 841.399C107.944 840.034 107.052 838.686 106.328 837.355C105.604 836.024 105.048 834.744 104.627 833.547C104.223 832.351 103.937 831.239 103.785 830.228C103.634 829.217 103.6 828.375 103.667 827.684L110.369 822.376C109.948 823.472 109.662 824.685 109.493 826.016C109.325 827.33 109.325 828.695 109.493 830.11C109.662 831.525 110.015 832.941 110.554 834.373C111.093 835.805 111.851 837.136 112.827 838.366C114.41 840.371 116.145 841.904 118.047 843.016C119.95 844.112 121.92 844.752 123.974 844.937C126.029 845.122 128.1 844.87 130.205 844.179C132.31 843.488 134.364 842.359 136.368 840.775C138.237 839.293 139.769 837.658 140.931 835.839C142.11 834.036 142.867 832.132 143.221 830.127C143.574 828.122 143.473 826.049 142.901 823.91C142.345 821.77 141.268 819.664 139.668 817.575C138.472 816.058 137.176 814.794 135.795 813.8C134.414 812.806 133.017 812.031 131.569 811.492C130.137 810.953 128.706 810.616 127.309 810.498C125.894 810.38 124.564 810.431 123.301 810.65L129.481 805.763V805.78Z" fill="#231F20"/>
<path d="M99.4408 787.01L111.194 804.549L123.284 796.445L109.914 776.496L113.939 773.8L130.339 798.281L95.0965 821.92L79.0662 797.995L83.0906 795.299L96.0899 814.692L107.17 807.262L95.4164 789.722L99.4408 787.026V787.01Z" fill="#231F20"/>
<path d="M63.3724 760.844L72.6168 777.491L76.3044 775.654C80.935 773.413 84.9594 771.61 88.4113 770.246C91.8632 768.881 94.8436 767.853 97.3525 767.179C99.8615 766.505 101.949 766.118 103.633 766.05C105.3 765.983 106.698 766.118 107.809 766.471C108.921 766.825 109.813 767.348 110.487 768.038C111.143 768.729 111.716 769.487 112.154 770.296C112.406 770.751 112.608 771.155 112.743 771.492C112.878 771.829 112.996 772.234 113.063 772.705L107.927 775.57C107.877 775.233 107.809 774.93 107.708 774.677C107.624 774.424 107.506 774.188 107.388 773.986C107.153 773.565 106.816 773.16 106.395 772.773C105.974 772.385 105.351 772.116 104.509 771.947C103.684 771.779 102.589 771.779 101.242 771.93C99.8951 772.082 98.1945 772.47 96.157 773.093C94.1195 773.716 91.6779 774.609 88.8154 775.789C85.9529 776.968 82.5852 778.518 78.7123 780.439L70.815 784.331L56.4518 758.451L93.547 737.828L96.1907 742.597L63.3387 760.861L63.3724 760.844Z" fill="#231F20"/>
<path d="M61.1165 713.499L69.7883 732.74L83.0571 726.759L73.1897 704.855L77.6182 702.867L89.7251 729.741L51.047 747.196L39.2096 720.929L43.6381 718.941L53.236 740.238L65.3934 734.762L56.7216 715.52L61.1501 713.532L61.1165 713.499Z" fill="#231F20"/>
<path d="M59.6343 696.482L73.324 691.545L75.1762 696.684L35.2521 711.073L30.5878 698.116C28.5672 692.488 28.0789 687.889 29.1397 684.334C30.2006 680.779 32.9789 678.184 37.458 676.566C41.8696 674.982 45.7088 675.235 48.9755 677.324C52.2422 679.414 54.8521 683.205 56.8391 688.681L59.6511 696.498L59.6343 696.482ZM37.9631 704.299L55.071 698.133L52.3095 690.483C50.9456 686.676 49.2281 684.03 47.1569 682.514C45.0858 680.997 42.3748 680.846 39.0408 682.059C36.0435 683.137 34.2923 684.839 33.7872 687.181C33.2988 689.506 33.7872 692.724 35.269 696.835L37.9631 704.316V704.299Z" fill="#231F20"/>
<path d="M53.9096 629.035L55.4924 634.763L45.8271 642.345L51.3838 662.396L63.5244 663.743L65.0398 669.236L19.4748 663.693L17.7405 657.442L53.9096 629.035ZM41.7017 645.58L24.1054 659.278L46.1807 661.772L41.7017 645.58Z" fill="#231F20"/>
<path d="M11.46 607.485L14.5078 622.396L51.3336 614.848L52.4281 620.189L15.6023 627.737L18.6669 642.716L13.9184 643.693L6.71156 608.462L11.46 607.485Z" fill="#231F20"/>
<path d="M27.2035 603.813C24.0716 604.201 21.1417 604.049 18.3802 603.358C15.6355 602.667 13.1771 601.488 11.0217 599.82C8.86641 598.152 7.08152 596.029 5.66709 593.451C4.25265 590.873 3.34337 587.857 2.92241 584.403C2.51829 581.033 2.65299 577.916 3.34337 575.069C4.03375 572.221 5.19561 569.728 6.82895 567.588C8.46228 565.448 10.5671 563.713 13.1266 562.365C15.686 561.017 18.6327 560.141 21.9668 559.736C25.0987 559.349 28.0286 559.517 30.7902 560.191C33.5517 560.865 35.9933 562.062 38.1486 563.73C40.3039 565.398 42.0888 567.537 43.5032 570.132C44.9177 572.727 45.8269 575.743 46.2479 579.146C46.6689 582.55 46.5173 585.684 45.8269 588.514C45.1366 591.345 43.9747 593.838 42.3414 595.961C40.708 598.084 38.6201 599.837 36.0774 601.185C33.5348 602.532 30.5712 603.409 27.2035 603.813ZM26.5637 598.152C28.9379 597.865 31.0932 597.242 33.0634 596.298C35.0166 595.355 36.6668 594.091 38.0139 592.524C39.3441 590.957 40.3376 589.087 40.9775 586.947C41.6173 584.791 41.7689 582.364 41.4321 579.685C41.129 577.158 40.4555 574.934 39.4115 573.03C38.3675 571.126 37.0204 569.559 35.3534 568.329C33.7032 567.099 31.8005 566.24 29.6283 565.718C27.473 565.212 25.1324 565.094 22.6066 565.414C20.2324 565.701 18.0771 566.324 16.107 567.268C14.1537 568.211 12.5035 569.475 11.1564 571.042C9.8262 572.609 8.83273 574.479 8.19286 576.619C7.553 578.776 7.40145 581.202 7.73822 583.881C8.04132 586.408 8.7317 588.632 9.79252 590.536C10.8534 592.44 12.2173 594.024 13.8843 595.271C15.5345 596.517 17.4372 597.394 19.5757 597.882C21.7142 598.371 24.0379 598.472 26.5637 598.169V598.152Z" fill="#231F20"/>
<path d="M28.1635 546.391L42.712 545.92L42.8972 551.379L0.481007 552.777L0.026367 539.012C-0.175695 533.03 0.7841 528.515 2.88891 525.448C4.99373 522.382 8.42879 520.781 13.1941 520.613C17.8752 520.461 21.4618 521.876 23.9202 524.875C26.3786 527.874 27.7089 532.272 27.8941 538.102L28.1635 546.408V546.391ZM5.12844 547.15L23.2972 546.56L23.0278 538.439C22.8931 534.395 22.0848 531.345 20.5694 529.256C19.0707 527.184 16.5449 526.206 12.9752 526.324C9.77587 526.425 7.6037 527.521 6.40816 529.576C5.22947 531.632 4.70747 534.85 4.84218 539.214L5.09476 547.15H5.12844Z" fill="#231F20"/>
<path d="M6.66049 491.179L12.0825 501.018L6.64365 500.715L0.245014 489.41L0.447076 485.77L43.2337 488.18L42.9475 493.201L6.66049 491.145V491.179Z" fill="#231F20"/>
<path d="M56.2329 403.395L55.0374 409.225L42.981 411.567L38.7714 431.937L48.9587 438.677L47.8137 444.254L9.79232 418.492L11.1057 412.14L56.2498 403.379L56.2329 403.395ZM37.8284 412.528L15.9215 416.672L34.4271 428.989L37.8284 412.528Z" fill="#231F20"/>
<path d="M58.7587 395.073L57.2096 400.313L16.5277 388.232L18.0769 382.992L36.0941 388.35L38.0473 381.779L24.7281 360.617L26.6982 353.995L41.1625 377.28L68.0536 363.818L66.0161 370.676L42.2065 382.706L40.169 389.563L58.7587 395.09V395.073Z" fill="#231F20"/>
<path d="M76.1365 329.766C76.5574 330.491 76.8942 331.417 77.1468 332.563C77.3994 333.692 77.5341 334.972 77.5509 336.388C77.5677 337.803 77.4499 339.336 77.1805 340.987C76.911 342.639 76.4396 344.34 75.7829 346.076C74.5705 349.243 72.9877 351.922 71.0344 354.096C69.0811 356.269 66.909 357.904 64.4674 359.016C62.0258 360.111 59.3653 360.65 56.4691 360.65C53.5729 360.65 50.5588 360.027 47.4268 358.83C44.4801 357.701 41.9543 356.185 39.8495 354.281C37.7447 352.394 36.1282 350.187 35 347.71C33.8718 345.216 33.2993 342.504 33.2656 339.572C33.2319 336.624 33.8381 333.54 35.0842 330.288C35.7072 328.671 36.4144 327.205 37.189 325.908C37.9636 324.61 38.7718 323.481 39.5969 322.521C40.422 321.561 41.2302 320.752 42.0216 320.112C42.8131 319.471 43.5203 319 44.1433 318.713L52.1247 321.78C50.9629 321.982 49.7674 322.353 48.555 322.875C47.3426 323.397 46.1639 324.105 45.0189 324.964C43.8907 325.823 42.8467 326.851 41.8869 328.047C40.9271 329.244 40.1694 330.575 39.5969 332.041C38.6876 334.416 38.233 336.708 38.2498 338.898C38.2667 341.088 38.7213 343.127 39.6137 344.981C40.5062 346.834 41.7859 348.502 43.4529 349.968C45.1199 351.434 47.1405 352.63 49.5148 353.54C51.7375 354.399 53.9265 354.871 56.0818 354.955C58.2371 355.039 60.2577 354.736 62.1605 354.012C64.0632 353.287 65.7808 352.141 67.3468 350.574C68.9127 349.007 70.1756 347.002 71.1523 344.559C71.8426 342.74 72.2804 340.987 72.432 339.302C72.5835 337.601 72.533 336 72.2636 334.501C71.9942 332.984 71.5564 331.603 70.9502 330.322C70.344 329.042 69.6031 327.929 68.778 326.952L76.1365 329.783V329.766Z" fill="#231F20"/>
<path d="M77.0117 294.332L67.8852 313.372L81.0024 319.656L91.375 298.005L95.753 300.112L83.023 326.699L44.7659 308.351L57.2096 282.37L61.5876 284.476L51.5014 305.537L63.524 311.299L72.6505 292.26L77.0285 294.366L77.0117 294.332Z" fill="#231F20"/>
<path d="M81.2212 249.936L71.5896 266.363L75.0583 268.604C79.3353 271.452 82.9556 274.013 85.8686 276.287C88.7985 278.562 91.1896 280.617 93.0587 282.437C94.9277 284.257 96.3085 285.874 97.2178 287.273C98.1271 288.671 98.7164 289.952 98.9858 291.081C99.2552 292.226 99.2552 293.254 98.9858 294.181C98.7164 295.107 98.3628 295.967 97.8913 296.775C97.6219 297.23 97.3862 297.601 97.1673 297.904C96.9484 298.191 96.6621 298.494 96.2917 298.797L91.2233 295.815C91.4927 295.596 91.7116 295.394 91.88 295.175C92.0484 294.973 92.1999 294.754 92.3178 294.551C92.5704 294.13 92.7387 293.642 92.8566 293.086C92.9745 292.53 92.8903 291.839 92.6209 291.047C92.3346 290.255 91.7958 289.311 90.9707 288.216C90.1624 287.138 88.9669 285.874 87.4009 284.425C85.835 282.993 83.8143 281.342 81.3559 279.472C78.8975 277.601 75.8497 275.478 72.2126 273.12L64.8373 268.301L79.8068 242.775L116.397 264.257L113.635 268.958L81.2212 249.919V249.936Z" fill="#231F20"/>
<path d="M120.809 223.939L108.652 241.192L120.54 249.583L134.364 229.954L138.321 232.751L121.348 256.845L86.6608 232.38L103.247 208.825L107.204 211.622L93.7666 230.712L104.661 238.395L116.819 221.142L120.776 223.939H120.809Z" fill="#231F20"/>
<path d="M134.684 214.032L145.898 223.299L142.429 227.511L109.729 200.469L118.502 189.854C122.307 185.237 126.012 182.491 129.615 181.581C133.219 180.671 136.856 181.749 140.527 184.782C144.147 187.765 145.881 191.202 145.747 195.077C145.612 198.952 143.692 203.131 139.988 207.629L134.701 214.032H134.684ZM116.919 199.34L130.929 210.932L136.098 204.664C138.674 201.547 140.089 198.716 140.325 196.155C140.577 193.611 139.331 191.202 136.587 188.927C134.128 186.888 131.771 186.248 129.514 187.006C127.258 187.765 124.749 189.837 121.971 193.19L116.919 199.306V199.34Z" fill="#231F20"/>
<path d="M189.762 174.707L185.654 178.986L174.204 174.538L159.807 189.551L164.841 200.688L160.901 204.799L142.429 162.744L146.925 158.06L189.796 174.69L189.762 174.707ZM169.304 172.634L148.559 164.479L157.668 184.765L169.304 172.651V172.634Z" fill="#231F20"/>
<path d="M186.597 127.175L175.349 137.419L200.64 165.236L196.599 168.909L171.307 141.092L160.009 151.37L156.742 147.781L183.33 123.569L186.597 127.158V127.175Z" fill="#231F20"/>
<path d="M197.795 138.835C195.875 136.342 194.495 133.73 193.686 131.017C192.861 128.305 192.626 125.592 192.962 122.879C193.299 120.167 194.208 117.555 195.707 115.011C197.206 112.467 199.327 110.142 202.072 108.019C204.766 105.946 207.511 104.48 210.306 103.604C213.118 102.745 215.846 102.459 218.523 102.779C221.184 103.099 223.76 104.009 226.235 105.525C228.71 107.041 230.967 109.131 233.021 111.776C234.941 114.27 236.321 116.881 237.13 119.594C237.955 122.306 238.191 125.019 237.854 127.732C237.517 130.444 236.591 133.073 235.092 135.617C233.577 138.161 231.472 140.486 228.744 142.592C226.033 144.699 223.272 146.164 220.476 147.024C217.681 147.883 214.953 148.153 212.293 147.832C209.632 147.512 207.056 146.619 204.598 145.12C202.139 143.62 199.866 141.531 197.795 138.835ZM202.341 135.398C203.806 137.285 205.44 138.835 207.258 140.031C209.077 141.228 210.996 142.003 213.034 142.357C215.071 142.71 217.159 142.609 219.348 142.036C221.52 141.48 223.676 140.368 225.831 138.717C227.852 137.167 229.401 135.449 230.512 133.562C231.623 131.691 232.28 129.72 232.482 127.681C232.684 125.626 232.465 123.553 231.792 121.43C231.118 119.307 230.024 117.252 228.458 115.23C226.993 113.343 225.36 111.793 223.541 110.597C221.722 109.4 219.803 108.625 217.765 108.271C215.728 107.918 213.64 108.035 211.451 108.592C209.279 109.148 207.123 110.26 204.968 111.911C202.948 113.461 201.398 115.196 200.304 117.083C199.209 118.97 198.553 120.959 198.334 123.014C198.115 125.07 198.334 127.159 199.007 129.248C199.681 131.337 200.792 133.393 202.341 135.415V135.398Z" fill="#231F20"/>
<path d="M247.603 110.294L255.45 122.56L250.853 125.508L227.986 89.7379L239.571 82.3244C244.606 79.1063 248.984 77.6068 252.688 77.8595C256.393 78.1122 259.524 80.2352 262.101 84.2621C264.627 88.2215 265.233 92.0125 263.919 95.6687C262.606 99.325 259.491 102.712 254.591 105.845L247.603 110.327V110.294ZM235.193 90.8837L244.993 106.216L251.829 101.835C255.231 99.6619 257.436 97.3873 258.464 95.0285C259.491 92.6696 259.019 90.0075 257.117 87.0084C255.399 84.3126 253.345 82.9816 250.97 83.0153C248.596 83.049 245.565 84.2452 241.895 86.5872L235.21 90.8668L235.193 90.8837Z" fill="#231F20"/>
<path d="M284.109 63.6051L278.417 73.2932L275.908 68.4408L282.357 57.1689L285.59 55.5008L305.325 93.5624L300.863 95.8875L284.125 63.6051H284.109Z" fill="#231F20"/>
</svg>
