<svg width="406" height="298" viewBox="0 0 406 298" fill="none" xmlns="http://www.w3.org/2000/svg">
<path d="M185.493 0.750825C185.063 1.07261 184.741 3.75412 184.741 6.5429V11.6914L170.241 12.335L169.919 67.7888L169.704 123.35H153.593V138.366H135.333V156.708L117.074 156.064V169.472H76.2593V158.746H62.2963V141.584H45.1111V95.462H32.2222V204.868H53.7037V218.812H73.7889L75.2926 231.898L87.8593 231.576L100.426 231.147L100.748 236.724L101.07 242.409H116V290.676H141.778V282.096H131.037V246.7H146.074V235.974H151.23C154.13 235.974 161.648 235.652 167.878 235.223L179.37 234.579V247.665L197.093 248.309L197.415 269.546L197.63 290.676H226.63V278.985L211.056 278.341L210.411 261.716C209.981 252.599 209.659 231.898 209.552 215.809L209.444 186.634H218.037V166.254H232.537L232.215 151.667C232 143.622 232.215 136.65 232.752 136.221C233.181 135.792 238.552 135.685 244.674 136.007L255.63 136.436V149.092H267.444V122.492L233.074 120.99V89.0264H298.7L298.056 74.5462H245.426L244.781 60.066H307.185V11.7987H290V0H238.122C209.552 0 185.815 0.321782 185.493 0.750825ZM215.889 31.1056H199.778V24.3482C199.778 20.5941 200.1 17.1617 200.53 16.8399C200.852 16.4109 204.504 16.0891 208.585 16.0891H215.889V31.1056Z" fill="#E8E8E8"/>
<path d="M0 278.878H96.6667V270.297H0V278.878Z" fill="#E8E8E8"/>
<path d="M148.222 278.878H184.741V270.297H148.222V278.878Z" fill="#E8E8E8"/>
<path d="M236.296 278.878H406V270.297H236.296V278.878Z" fill="#E8E8E8"/>
<path d="M52.6296 292.822H77.3333V285.313H52.6296V292.822Z" fill="#E8E8E8"/>
<path d="M364.312 290.76H406V298H364.312V290.76Z" fill="#E8E8E8"/>
<path d="M313.562 288.95H336.219V296.19H313.562V288.95Z" fill="#E8E8E8"/>
</svg>
